<?xml version="1.0" encoding="UTF-8"?><svg xmlns="http://www.w3.org/2000/svg" viewBox="0 0 688.54366 128.97431"><defs><style>.d{fill:#fff;}.e{fill:#ffce00;}</style></defs><g id="a"/><g id="b"><g id="c"><g><path class="d" d="M183.64728,58.24654L127.91906,2.51831C126.29078,.89808,124.08489-.00791,121.78785,.00014c-2.33028-.01314-4.57209,.89146-6.24068,2.51817l-10.83909,10.94857c-.84654,.77672-.90315,2.09263-.12643,2.93917,.04031,.04394,.0825,.08612,.12643,.12643l7.664,7.77349c.88847,.84808,2.28662,.84808,3.17509,0l4.70789-4.70788c.77671-.84654,2.09263-.90315,2.93917-.12643,.04394,.04031,.08612,.0825,.12643,.12643l43.35635,43.35634c.84654,.77672,.90315,2.09263,.12643,2.93917-.04031,.04393-.0825,.08612-.12643,.12643l-43.35636,43.35634c-.77671,.84654-2.09263,.90315-2.93917,.12643-.04394-.04031-.08612-.0825-.12643-.12643l-43.35634-43.35634c-.84654-.77672-.90315-2.09263-.12643-2.93917,.04031-.04393,.0825-.08612,.12643-.12643l4.37943-4.37943c.84808-.88846,.84808-2.28662,0-3.17509l-7.77348-7.664c-.77671-.84654-2.09263-.90315-2.93917-.12643-.04394,.04031-.08612,.0825-.12643,.12643l-10.62011,10.51063c-3.41055,3.41882-3.41055,8.95307,0,12.37189l55.72823,55.72823c1.65752,1.65686,3.89722,2.5999,6.24068,2.62766,2.31032-.03291,4.51405-.97736,6.1312-2.62766l55.72823-55.72823c3.4164-3.33873,3.47937-8.81485,.14063-12.23125-.04634-.04742-.09322-.0943-.14063-.14064Z"/><path class="e" d="M2.55791,70.61843l55.72823,55.72823c1.65752,1.65686,3.89723,2.5999,6.24069,2.62766,2.31032-.03291,4.51405-.97736,6.1312-2.62766l10.94857-10.83909c.84808-.88847,.84808-2.28662,0-3.17509l-7.77348-7.664c-.77671-.84654-2.09263-.90315-2.93917-.12643-.04394,.04031-.08612,.0825-.12643,.12643l-4.70788,4.70789c-.77672,.84654-2.09263,.90315-2.93917,.12643-.04393-.04031-.08612-.0825-.12643-.12643L19.63768,66.02002c-.84654-.77672-.90315-2.09263-.12643-2.93917,.04031-.04393,.0825-.08612,.12643-.12643L62.99403,19.59808c.77672-.84654,2.09263-.90315,2.93917-.12643,.04393,.04031,.08612,.0825,.12643,.12643l43.35634,43.35634c.84654,.77672,.90315,2.09263,.12643,2.93917-.04031,.04393-.0825,.08612-.12643,.12643l-4.37943,4.37943c-.84654,.77671-.90315,2.09263-.12643,2.93917,.04031,.04394,.0825,.08612,.12643,.12643l7.664,7.77348c.88847,.84808,2.28662,.84808,3.17509,0l10.51063-10.62011c3.4164-3.33873,3.47937-8.81485,.14063-12.23125-.04633-.04742-.09322-.0943-.14063-.14064L70.65803,2.51831C69.02975,.89808,66.82386-.00791,64.52683,.00014c-2.33028-.01314-4.5721,.89145-6.24069,2.51817L2.55791,58.24654c-3.41055,3.41882-3.41055,8.95306,0,12.37188Z"/><g><path class="d" d="M217.0649,65.02968c0-18.08203,12.48877-30.47656,28.70557-30.47656,16.58984,0,26.18945,9.22656,27.21484,24.23242l-7.73584,.46484c-.65234-10.7168-7.54932-17.80078-19.38574-17.80078-12.02295,0-20.50391,9.13281-20.50391,23.67383,0,14.53906,8.57422,23.57812,21.24951,23.57812,10.99756,0,18.08105-6.89648,19.1062-16.96094h-17.89453v-6.33789h25.25757v28.98438h-7.36304v-10.4375c-2.60962,7.45508-10.90454,11.55664-20.03833,11.55664-16.58936,0-28.6123-12.20898-28.6123-30.47656Z"/><path class="d" d="M291.7148,35.6703v58.7168h-7.73584V35.6703h7.73584Z"/><path class="d" d="M330.11275,53.65858h7.73535v40.72852h-7.73535v-7.17578c-1.95752,4.8457-7.17676,8.29492-13.32788,8.29492-10.62476,0-14.53931-6.99023-14.53931-16.49609v-25.35156h7.73584v24.60547c0,6.80273,2.98242,11.18359,9.41309,11.18359,6.05811,0,10.71826-4.8457,10.71826-12.39453v-23.39453Z"/><path class="d" d="M429.92598,72.11171h10.06567v6.61719h-10.06567v15.6582h-7.92212v-15.6582h-30.84937v-7.64062l28.9856-35.41797h9.78589v36.44141Zm-31.78149,0h23.85938v-29.17188l-23.85938,29.17188Z"/><path class="d" d="M486.31001,87.39686v6.99023h-43.15186v-4.66016l16.58984-14.25977c9.22705-8.01367,16.12354-13.97852,16.12354-22.55469,0-6.89648-3.91406-11.74219-11.6499-11.74219-8.01514,0-12.48877,5.125-12.48877,13.69922,0,1.77148,.18628,3.54297,.65234,5.3125l-8.01514-.37109c-.37305-1.86523-.65259-3.72852-.65259-5.5,0-12.02344,8.10864-19.75781,20.59741-19.75781,13.7002,0,19.94482,8.01562,19.94482,17.98828,0,10.62305-9.04053,18.73242-17.52148,25.72266l-11.09106,9.13281h30.66284Z"/><path class="e" d="M591.52437,95.50624c-11.92969,0-20.69043-8.76172-20.69043-21.43555,0-12.67578,8.76074-21.5293,20.69043-21.5293,12.02295,0,20.87695,8.85352,20.87695,21.5293,0,12.67383-8.854,21.43555-20.87695,21.43555Zm0-5.96484c8.29492,0,12.95508-6.43164,12.95508-15.4707,0-9.13477-4.66016-15.47266-12.95508-15.47266-8.20166,0-12.76855,6.33789-12.76855,15.47266,0,9.03906,4.56689,15.4707,12.76855,15.4707Z"/><path class="e" d="M645.20552,61.39491c-2.23682-1.21289-3.8208-1.67773-6.3374-1.67773-5.87158,0-10.25195,5.3125-10.25195,13.14062v21.5293h-7.73584V53.65858h7.73584v8.29492c1.49121-4.66016,5.68506-9.41211,11.55664-9.41211,2.5166,0,4.38037,.65234,5.77832,1.86328l-.74561,6.99023Z"/><path class="e" d="M556.52706,72.46815c-1.57642,9.3877-8.19043,16.1416-19.24048,16.1416-11.92969,0-20.50391-9.13477-20.50391-23.58008,0-14.44727,8.57422-23.58008,20.50391-23.58008,11.18066,0,17.82471,6.91211,19.29883,16.47339l7.62036-1.72925c-2.33887-13.00366-11.59326-21.64062-26.91919-21.64062-16.2168,0-28.79883,12.39453-28.79883,30.47656,0,18.08008,12.58203,30.47656,28.79883,30.47656,16.56494,0,26.03613-10.08984,27.34863-24.87817l-8.10815,1.84009Z"/><path class="d" d="M379.49263,81.1974c-1.8645,5.42285-5.77148,8.25024-12.10205,8.25024-7.26953,0-12.95508-5.5918-13.32764-13.51367h32.43359v-3.07617c0-11.08984-6.61719-20.31641-19.57202-20.31641-11.74341,0-20.59741,9.22656-20.59741,22.08789,0,12.67578,8.854,20.87695,20.97021,20.87695,9.51855,0,16.09131-4.90967,18.5686-13.11841l-6.37329-1.19043Zm-12.56812-22.78491c7.7356,0,11.37036,5.96484,11.65015,12.48828h-24.32544c.93188-6.71094,5.31226-12.48828,12.67529-12.48828Z"/><path class="e" d="M681.53975,81.1974c-1.8645,5.42285-5.77148,8.25024-12.10205,8.25024-7.26953,0-12.95508-5.5918-13.32764-13.51367h32.43359v-3.07617c0-11.08984-6.61719-20.31641-19.57202-20.31641-11.74341,0-20.59741,9.22656-20.59741,22.08789,0,12.67578,8.854,20.87695,20.97021,20.87695,9.51855,0,16.09131-4.90967,18.5686-13.11841l-6.37329-1.19043Zm-12.56812-22.78491c7.7356,0,11.37036,5.96484,11.65015,12.48828h-24.32544c.93188-6.71094,5.31226-12.48828,12.67529-12.48828Z"/></g></g></g></g></svg>
